<?xml version="1.0" standalone="no"?>
<!DOCTYPE svg PUBLIC "-//W3C//DTD SVG 1.1//EN" "http://www.w3.org/Graphics/SVG/1.1/DTD/svg11.dtd">
<svg version="1.1" xmlns="http://www.w3.org/2000/svg" viewBox="0 0 52 406" width="52" height="406"><!-- svg-source:excalidraw --><metadata></metadata><defs><style class="style-fonts">
      </style></defs><rect x="0" y="0" width="52" height="406" fill="#ffffff"></rect><g stroke-linecap="round" transform="translate(16 10) rotate(0 10 190)"><path d="M0 0 L20 0 L20 380 L0 380" stroke="none" stroke-width="0" fill="#e5e9ee"></path><path d="M0 0 C6.63 0, 13.27 0, 20 0 M0 0 C5.57 0, 11.13 0, 20 0 M20 0 C20 145.11, 20 290.22, 20 380 M20 0 C20 146.45, 20 292.89, 20 380 M20 380 C12.85 380, 5.7 380, 0 380 M20 380 C15.12 380, 10.25 380, 0 380 M0 380 C0 294.09, 0 208.18, 0 0 M0 380 C0 238.87, 0 97.73, 0 0" stroke="#6b7280" stroke-width="2" fill="none"></path></g><g stroke-linecap="round" transform="translate(10 24) rotate(0 16 16)"><path d="M32 16 C32 16.93, 31.92 17.87, 31.76 18.78 C31.6 19.69, 31.35 20.6, 31.04 21.47 C30.72 22.34, 30.32 23.2, 29.86 24 C29.39 24.8, 28.85 25.58, 28.26 26.28 C27.66 26.99, 26.99 27.66, 26.28 28.26 C25.58 28.85, 24.8 29.39, 24 29.86 C23.2 30.32, 22.34 30.72, 21.47 31.04 C20.6 31.35, 19.69 31.6, 18.78 31.76 C17.87 31.92, 16.93 32, 16 32 C15.07 32, 14.13 31.92, 13.22 31.76 C12.31 31.6, 11.4 31.35, 10.53 31.04 C9.66 30.72, 8.8 30.32, 8 29.86 C7.2 29.39, 6.42 28.85, 5.72 28.26 C5.01 27.66, 4.34 26.99, 3.74 26.28 C3.15 25.58, 2.61 24.8, 2.14 24 C1.68 23.2, 1.28 22.34, 0.96 21.47 C0.65 20.6, 0.4 19.69, 0.24 18.78 C0.08 17.87, 0 16.93, 0 16 C0 15.07, 0.08 14.13, 0.24 13.22 C0.4 12.31, 0.65 11.4, 0.96 10.53 C1.28 9.66, 1.68 8.8, 2.14 8 C2.61 7.2, 3.15 6.42, 3.74 5.72 C4.34 5.01, 5.01 4.34, 5.72 3.74 C6.42 3.15, 7.2 2.61, 8 2.14 C8.8 1.68, 9.66 1.28, 10.53 0.96 C11.4 0.65, 12.31 0.4, 13.22 0.24 C14.13 0.08, 15.07 0, 16 0 C16.93 0, 17.87 0.08, 18.78 0.24 C19.69 0.4, 20.6 0.65, 21.47 0.96 C22.34 1.28, 23.2 1.68, 24 2.14 C24.8 2.61, 25.58 3.15, 26.28 3.74 C26.99 4.34, 27.66 5.01, 28.26 5.72 C28.85 6.42, 29.39 7.2, 29.86 8 C30.32 8.8, 30.72 9.66, 31.04 10.53 C31.35 11.4, 31.6 12.31, 31.76 13.22 C31.92 14.13, 31.96 15.54, 32 16 C32.04 16.46, 32.04 15.54, 32 16" stroke="none" stroke-width="0" fill="#009E73"></path><path d="M32 16 C32 16.93, 31.92 17.87, 31.76 18.78 C31.6 19.69, 31.35 20.6, 31.04 21.47 C30.72 22.34, 30.32 23.2, 29.86 24 C29.39 24.8, 28.85 25.58, 28.26 26.28 C27.66 26.99, 26.99 27.66, 26.28 28.26 C25.58 28.85, 24.8 29.39, 24 29.86 C23.2 30.32, 22.34 30.72, 21.47 31.04 C20.6 31.35, 19.69 31.6, 18.78 31.76 C17.87 31.92, 16.93 32, 16 32 C15.07 32, 14.13 31.92, 13.22 31.76 C12.31 31.6, 11.4 31.35, 10.53 31.04 C9.66 30.72, 8.8 30.32, 8 29.86 C7.2 29.39, 6.42 28.85, 5.72 28.26 C5.01 27.66, 4.34 26.99, 3.74 26.28 C3.15 25.58, 2.61 24.8, 2.14 24 C1.68 23.2, 1.28 22.34, 0.96 21.47 C0.65 20.6, 0.4 19.69, 0.24 18.78 C0.08 17.87, 0 16.93, 0 16 C0 15.07, 0.08 14.13, 0.24 13.22 C0.4 12.31, 0.65 11.4, 0.96 10.53 C1.28 9.66, 1.68 8.8, 2.14 8 C2.61 7.2, 3.15 6.42, 3.74 5.72 C4.34 5.01, 5.01 4.34, 5.72 3.74 C6.42 3.15, 7.2 2.61, 8 2.14 C8.8 1.68, 9.66 1.28, 10.53 0.96 C11.4 0.65, 12.31 0.4, 13.22 0.24 C14.13 0.08, 15.07 0, 16 0 C16.93 0, 17.87 0.08, 18.78 0.24 C19.69 0.4, 20.6 0.65, 21.47 0.96 C22.34 1.28, 23.2 1.68, 24 2.14 C24.8 2.61, 25.58 3.15, 26.28 3.74 C26.99 4.34, 27.66 5.01, 28.26 5.72 C28.85 6.42, 29.39 7.2, 29.86 8 C30.32 8.8, 30.72 9.66, 31.04 10.53 C31.35 11.4, 31.6 12.31, 31.76 13.22 C31.92 14.13, 31.96 15.54, 32 16 C32.04 16.46, 32.04 15.54, 32 16" stroke="#009E73" stroke-width="2" fill="none"></path></g><g stroke-linecap="round" transform="translate(10 92) rotate(0 16 16)"><path d="M32 16 C32 16.93, 31.92 17.87, 31.76 18.78 C31.6 19.69, 31.35 20.6, 31.04 21.47 C30.72 22.34, 30.32 23.2, 29.86 24 C29.39 24.8, 28.85 25.58, 28.26 26.28 C27.66 26.99, 26.99 27.66, 26.28 28.26 C25.58 28.85, 24.8 29.39, 24 29.86 C23.2 30.32, 22.34 30.72, 21.47 31.04 C20.6 31.35, 19.69 31.6, 18.78 31.76 C17.87 31.92, 16.93 32, 16 32 C15.07 32, 14.13 31.92, 13.22 31.76 C12.31 31.6, 11.4 31.35, 10.53 31.04 C9.66 30.72, 8.8 30.32, 8 29.86 C7.2 29.39, 6.42 28.85, 5.72 28.26 C5.01 27.66, 4.34 26.99, 3.74 26.28 C3.15 25.58, 2.61 24.8, 2.14 24 C1.68 23.2, 1.28 22.34, 0.96 21.47 C0.65 20.6, 0.4 19.69, 0.24 18.78 C0.08 17.87, 0 16.93, 0 16 C0 15.07, 0.08 14.13, 0.24 13.22 C0.4 12.31, 0.65 11.4, 0.96 10.53 C1.28 9.66, 1.68 8.8, 2.14 8 C2.61 7.2, 3.15 6.42, 3.74 5.72 C4.34 5.01, 5.01 4.34, 5.72 3.74 C6.42 3.15, 7.2 2.61, 8 2.14 C8.8 1.68, 9.66 1.28, 10.53 0.96 C11.4 0.65, 12.31 0.4, 13.22 0.24 C14.13 0.08, 15.07 0, 16 0 C16.93 0, 17.87 0.08, 18.78 0.24 C19.69 0.4, 20.6 0.65, 21.47 0.96 C22.34 1.28, 23.2 1.68, 24 2.14 C24.8 2.61, 25.58 3.15, 26.28 3.74 C26.99 4.34, 27.66 5.01, 28.26 5.72 C28.85 6.42, 29.39 7.2, 29.86 8 C30.32 8.8, 30.72 9.66, 31.04 10.53 C31.35 11.4, 31.6 12.31, 31.76 13.22 C31.92 14.13, 31.96 15.54, 32 16 C32.04 16.46, 32.04 15.54, 32 16" stroke="none" stroke-width="0" fill="#009E73"></path><path d="M32 16 C32 16.93, 31.92 17.87, 31.76 18.78 C31.6 19.69, 31.35 20.6, 31.04 21.47 C30.72 22.34, 30.32 23.2, 29.86 24 C29.39 24.8, 28.85 25.58, 28.26 26.28 C27.66 26.99, 26.99 27.66, 26.28 28.26 C25.58 28.85, 24.8 29.39, 24 29.86 C23.2 30.32, 22.34 30.72, 21.47 31.04 C20.6 31.35, 19.69 31.6, 18.78 31.76 C17.87 31.92, 16.93 32, 16 32 C15.07 32, 14.13 31.92, 13.22 31.76 C12.31 31.6, 11.4 31.35, 10.53 31.04 C9.66 30.72, 8.8 30.32, 8 29.86 C7.2 29.39, 6.42 28.85, 5.72 28.26 C5.01 27.66, 4.34 26.99, 3.74 26.28 C3.15 25.58, 2.61 24.8, 2.14 24 C1.68 23.2, 1.28 22.34, 0.96 21.47 C0.65 20.6, 0.4 19.69, 0.24 18.78 C0.08 17.87, 0 16.93, 0 16 C0 15.07, 0.08 14.13, 0.24 13.22 C0.4 12.31, 0.65 11.4, 0.96 10.53 C1.28 9.66, 1.68 8.8, 2.14 8 C2.61 7.2, 3.15 6.42, 3.74 5.72 C4.34 5.01, 5.01 4.34, 5.72 3.74 C6.42 3.15, 7.2 2.61, 8 2.14 C8.8 1.68, 9.66 1.28, 10.53 0.96 C11.4 0.65, 12.31 0.4, 13.22 0.24 C14.13 0.08, 15.07 0, 16 0 C16.93 0, 17.87 0.08, 18.78 0.24 C19.69 0.4, 20.6 0.65, 21.47 0.96 C22.34 1.28, 23.2 1.68, 24 2.14 C24.8 2.61, 25.58 3.15, 26.28 3.74 C26.99 4.34, 27.66 5.01, 28.26 5.72 C28.85 6.42, 29.39 7.2, 29.86 8 C30.32 8.8, 30.72 9.66, 31.04 10.53 C31.35 11.4, 31.6 12.31, 31.76 13.22 C31.92 14.13, 31.96 15.54, 32 16 C32.04 16.46, 32.04 15.54, 32 16" stroke="#009E73" stroke-width="2" fill="none"></path></g><g stroke-linecap="round" transform="translate(10 160) rotate(0 16 16)"><path d="M32 16 C32 16.93, 31.92 17.87, 31.76 18.78 C31.6 19.69, 31.35 20.6, 31.04 21.47 C30.72 22.34, 30.32 23.2, 29.86 24 C29.39 24.8, 28.85 25.58, 28.26 26.28 C27.66 26.99, 26.99 27.66, 26.28 28.26 C25.58 28.85, 24.8 29.39, 24 29.86 C23.2 30.32, 22.34 30.72, 21.47 31.04 C20.6 31.35, 19.69 31.6, 18.78 31.76 C17.87 31.92, 16.93 32, 16 32 C15.07 32, 14.13 31.92, 13.22 31.76 C12.31 31.6, 11.4 31.35, 10.53 31.04 C9.66 30.72, 8.8 30.32, 8 29.86 C7.2 29.39, 6.42 28.85, 5.72 28.26 C5.01 27.66, 4.34 26.99, 3.74 26.28 C3.15 25.58, 2.61 24.8, 2.14 24 C1.68 23.2, 1.28 22.34, 0.96 21.47 C0.65 20.6, 0.4 19.69, 0.24 18.78 C0.08 17.87, 0 16.93, 0 16 C0 15.07, 0.08 14.13, 0.24 13.22 C0.4 12.31, 0.65 11.4, 0.96 10.53 C1.28 9.66, 1.68 8.8, 2.14 8 C2.61 7.2, 3.15 6.42, 3.74 5.72 C4.34 5.01, 5.01 4.34, 5.72 3.74 C6.42 3.15, 7.2 2.61, 8 2.14 C8.8 1.68, 9.66 1.28, 10.53 0.96 C11.4 0.65, 12.31 0.4, 13.22 0.24 C14.13 0.08, 15.07 0, 16 0 C16.93 0, 17.87 0.08, 18.78 0.24 C19.69 0.4, 20.6 0.65, 21.47 0.96 C22.34 1.28, 23.2 1.68, 24 2.14 C24.8 2.61, 25.58 3.15, 26.28 3.74 C26.99 4.34, 27.66 5.01, 28.26 5.72 C28.85 6.42, 29.39 7.2, 29.86 8 C30.32 8.8, 30.72 9.66, 31.04 10.53 C31.35 11.4, 31.6 12.31, 31.76 13.22 C31.92 14.13, 31.96 15.54, 32 16 C32.04 16.46, 32.04 15.54, 32 16" stroke="none" stroke-width="0" fill="#009E73"></path><path d="M32 16 C32 16.93, 31.92 17.87, 31.76 18.78 C31.6 19.69, 31.35 20.6, 31.04 21.47 C30.72 22.34, 30.32 23.2, 29.86 24 C29.39 24.8, 28.85 25.58, 28.26 26.28 C27.66 26.99, 26.99 27.66, 26.28 28.26 C25.58 28.85, 24.8 29.39, 24 29.86 C23.2 30.32, 22.34 30.72, 21.47 31.04 C20.6 31.35, 19.69 31.6, 18.78 31.76 C17.87 31.92, 16.93 32, 16 32 C15.07 32, 14.13 31.92, 13.22 31.76 C12.31 31.6, 11.4 31.35, 10.53 31.04 C9.66 30.72, 8.8 30.32, 8 29.86 C7.2 29.39, 6.42 28.85, 5.72 28.26 C5.01 27.66, 4.34 26.99, 3.74 26.28 C3.15 25.58, 2.61 24.8, 2.14 24 C1.68 23.2, 1.28 22.34, 0.96 21.47 C0.65 20.6, 0.4 19.69, 0.24 18.78 C0.08 17.87, 0 16.93, 0 16 C0 15.07, 0.08 14.13, 0.24 13.22 C0.4 12.31, 0.65 11.4, 0.96 10.53 C1.28 9.66, 1.68 8.8, 2.14 8 C2.61 7.2, 3.15 6.42, 3.74 5.72 C4.34 5.01, 5.01 4.34, 5.72 3.74 C6.42 3.15, 7.2 2.61, 8 2.14 C8.8 1.68, 9.66 1.28, 10.53 0.96 C11.4 0.65, 12.31 0.4, 13.22 0.24 C14.13 0.08, 15.07 0, 16 0 C16.93 0, 17.87 0.08, 18.78 0.24 C19.69 0.4, 20.6 0.65, 21.47 0.96 C22.34 1.28, 23.2 1.68, 24 2.14 C24.8 2.61, 25.58 3.15, 26.28 3.74 C26.99 4.34, 27.66 5.01, 28.26 5.72 C28.85 6.42, 29.39 7.2, 29.86 8 C30.32 8.8, 30.72 9.66, 31.04 10.53 C31.35 11.4, 31.6 12.31, 31.76 13.22 C31.92 14.13, 31.96 15.54, 32 16 C32.04 16.46, 32.04 15.54, 32 16" stroke="#009E73" stroke-width="2" fill="none"></path></g><g stroke-linecap="round" transform="translate(10 228) rotate(0 16 16)"><path d="M32 16 C32 16.93, 31.92 17.87, 31.76 18.78 C31.6 19.69, 31.35 20.6, 31.04 21.47 C30.72 22.34, 30.32 23.2, 29.86 24 C29.39 24.8, 28.85 25.58, 28.26 26.28 C27.66 26.99, 26.99 27.66, 26.28 28.26 C25.58 28.85, 24.8 29.39, 24 29.86 C23.2 30.32, 22.34 30.72, 21.47 31.04 C20.6 31.35, 19.69 31.6, 18.78 31.76 C17.87 31.92, 16.93 32, 16 32 C15.07 32, 14.13 31.92, 13.22 31.76 C12.31 31.6, 11.4 31.35, 10.53 31.04 C9.66 30.72, 8.8 30.32, 8 29.86 C7.2 29.39, 6.42 28.85, 5.72 28.26 C5.01 27.66, 4.34 26.99, 3.74 26.28 C3.15 25.58, 2.61 24.8, 2.14 24 C1.68 23.2, 1.28 22.34, 0.96 21.47 C0.65 20.6, 0.4 19.69, 0.24 18.78 C0.08 17.87, 0 16.93, 0 16 C0 15.07, 0.08 14.13, 0.24 13.22 C0.4 12.31, 0.65 11.4, 0.96 10.53 C1.28 9.66, 1.68 8.8, 2.14 8 C2.61 7.2, 3.15 6.42, 3.74 5.72 C4.34 5.01, 5.01 4.34, 5.72 3.74 C6.42 3.15, 7.2 2.61, 8 2.14 C8.8 1.68, 9.66 1.28, 10.53 0.96 C11.4 0.65, 12.31 0.4, 13.22 0.24 C14.13 0.08, 15.07 0, 16 0 C16.93 0, 17.87 0.08, 18.78 0.24 C19.69 0.4, 20.6 0.65, 21.47 0.96 C22.34 1.28, 23.2 1.68, 24 2.14 C24.8 2.61, 25.58 3.15, 26.28 3.74 C26.99 4.34, 27.66 5.01, 28.26 5.72 C28.85 6.42, 29.39 7.2, 29.86 8 C30.32 8.8, 30.72 9.66, 31.04 10.53 C31.35 11.4, 31.6 12.31, 31.76 13.22 C31.92 14.13, 31.96 15.54, 32 16 C32.04 16.46, 32.04 15.54, 32 16" stroke="none" stroke-width="0" fill="#009E73"></path><path d="M32 16 C32 16.93, 31.92 17.87, 31.76 18.78 C31.6 19.69, 31.35 20.6, 31.04 21.47 C30.72 22.34, 30.32 23.2, 29.86 24 C29.39 24.8, 28.85 25.58, 28.26 26.28 C27.66 26.99, 26.99 27.66, 26.28 28.26 C25.58 28.85, 24.8 29.39, 24 29.86 C23.2 30.32, 22.34 30.72, 21.47 31.04 C20.6 31.35, 19.69 31.6, 18.78 31.76 C17.87 31.92, 16.93 32, 16 32 C15.07 32, 14.13 31.92, 13.22 31.76 C12.31 31.6, 11.4 31.35, 10.53 31.04 C9.66 30.72, 8.8 30.32, 8 29.86 C7.2 29.39, 6.42 28.85, 5.72 28.26 C5.01 27.66, 4.34 26.99, 3.74 26.28 C3.15 25.58, 2.61 24.8, 2.14 24 C1.68 23.2, 1.28 22.34, 0.96 21.47 C0.65 20.6, 0.4 19.69, 0.24 18.78 C0.08 17.87, 0 16.93, 0 16 C0 15.07, 0.08 14.13, 0.24 13.22 C0.4 12.31, 0.65 11.4, 0.96 10.53 C1.28 9.66, 1.68 8.8, 2.14 8 C2.61 7.2, 3.15 6.42, 3.74 5.72 C4.34 5.01, 5.01 4.34, 5.72 3.74 C6.42 3.15, 7.2 2.61, 8 2.14 C8.8 1.68, 9.66 1.28, 10.53 0.96 C11.4 0.65, 12.31 0.4, 13.22 0.24 C14.13 0.08, 15.07 0, 16 0 C16.93 0, 17.87 0.08, 18.78 0.24 C19.69 0.4, 20.6 0.65, 21.47 0.96 C22.34 1.28, 23.2 1.68, 24 2.14 C24.8 2.61, 25.58 3.15, 26.28 3.74 C26.99 4.34, 27.66 5.01, 28.26 5.72 C28.85 6.42, 29.39 7.2, 29.86 8 C30.32 8.8, 30.72 9.66, 31.04 10.53 C31.35 11.4, 31.6 12.31, 31.76 13.22 C31.92 14.13, 31.96 15.54, 32 16 C32.04 16.46, 32.04 15.54, 32 16" stroke="#009E73" stroke-width="2" fill="none"></path></g><g stroke-linecap="round" transform="translate(10 296) rotate(0 16 16)"><path d="M32 16 C32 16.93, 31.92 17.87, 31.76 18.78 C31.6 19.69, 31.35 20.6, 31.04 21.47 C30.72 22.34, 30.32 23.2, 29.86 24 C29.39 24.8, 28.85 25.58, 28.26 26.28 C27.66 26.99, 26.99 27.66, 26.28 28.26 C25.58 28.85, 24.8 29.39, 24 29.86 C23.2 30.32, 22.34 30.72, 21.47 31.04 C20.6 31.35, 19.69 31.6, 18.78 31.76 C17.87 31.92, 16.93 32, 16 32 C15.07 32, 14.13 31.92, 13.22 31.76 C12.31 31.6, 11.4 31.35, 10.53 31.04 C9.66 30.72, 8.8 30.32, 8 29.86 C7.2 29.39, 6.42 28.85, 5.72 28.26 C5.01 27.66, 4.34 26.99, 3.74 26.28 C3.15 25.58, 2.61 24.8, 2.14 24 C1.68 23.2, 1.28 22.34, 0.96 21.47 C0.65 20.6, 0.4 19.69, 0.24 18.78 C0.08 17.87, 0 16.93, 0 16 C0 15.07, 0.08 14.13, 0.24 13.22 C0.4 12.31, 0.65 11.4, 0.96 10.53 C1.28 9.66, 1.68 8.8, 2.14 8 C2.61 7.2, 3.15 6.42, 3.74 5.72 C4.34 5.01, 5.01 4.34, 5.72 3.74 C6.42 3.15, 7.2 2.61, 8 2.14 C8.8 1.68, 9.66 1.28, 10.53 0.96 C11.4 0.65, 12.31 0.4, 13.22 0.24 C14.13 0.08, 15.07 0, 16 0 C16.93 0, 17.87 0.08, 18.78 0.24 C19.69 0.4, 20.6 0.65, 21.47 0.96 C22.34 1.28, 23.2 1.68, 24 2.14 C24.8 2.61, 25.58 3.15, 26.28 3.74 C26.99 4.34, 27.66 5.01, 28.26 5.72 C28.85 6.42, 29.39 7.2, 29.86 8 C30.32 8.8, 30.72 9.66, 31.04 10.53 C31.35 11.4, 31.6 12.31, 31.76 13.22 C31.92 14.13, 31.96 15.54, 32 16 C32.04 16.46, 32.04 15.54, 32 16" stroke="none" stroke-width="0" fill="#009E73"></path><path d="M32 16 C32 16.93, 31.92 17.87, 31.76 18.78 C31.6 19.69, 31.35 20.6, 31.04 21.47 C30.72 22.34, 30.32 23.2, 29.86 24 C29.39 24.8, 28.85 25.58, 28.26 26.28 C27.66 26.99, 26.99 27.66, 26.28 28.26 C25.58 28.85, 24.8 29.39, 24 29.86 C23.2 30.32, 22.34 30.72, 21.47 31.04 C20.6 31.35, 19.69 31.6, 18.78 31.76 C17.87 31.92, 16.93 32, 16 32 C15.07 32, 14.13 31.92, 13.22 31.76 C12.31 31.6, 11.4 31.35, 10.53 31.04 C9.66 30.72, 8.8 30.32, 8 29.86 C7.2 29.39, 6.42 28.85, 5.72 28.26 C5.01 27.66, 4.34 26.99, 3.74 26.28 C3.15 25.58, 2.61 24.8, 2.14 24 C1.68 23.2, 1.28 22.34, 0.96 21.47 C0.65 20.6, 0.4 19.69, 0.24 18.78 C0.08 17.87, 0 16.93, 0 16 C0 15.07, 0.08 14.13, 0.24 13.22 C0.4 12.31, 0.65 11.4, 0.96 10.53 C1.28 9.66, 1.68 8.8, 2.14 8 C2.61 7.2, 3.15 6.42, 3.74 5.72 C4.34 5.01, 5.01 4.34, 5.72 3.74 C6.42 3.15, 7.2 2.61, 8 2.14 C8.8 1.68, 9.66 1.28, 10.53 0.96 C11.4 0.65, 12.31 0.4, 13.22 0.24 C14.13 0.08, 15.07 0, 16 0 C16.93 0, 17.87 0.08, 18.78 0.24 C19.69 0.4, 20.6 0.65, 21.47 0.96 C22.34 1.28, 23.2 1.68, 24 2.14 C24.8 2.61, 25.58 3.15, 26.28 3.74 C26.99 4.34, 27.66 5.01, 28.26 5.72 C28.85 6.42, 29.39 7.2, 29.86 8 C30.32 8.8, 30.72 9.66, 31.04 10.53 C31.35 11.4, 31.6 12.31, 31.76 13.22 C31.92 14.13, 31.96 15.54, 32 16 C32.04 16.46, 32.04 15.54, 32 16" stroke="#009E73" stroke-width="2" fill="none"></path></g><g stroke-linecap="round" transform="translate(10 364) rotate(0 16 16)"><path d="M32 16 C32 16.93, 31.92 17.87, 31.76 18.78 C31.6 19.69, 31.35 20.6, 31.04 21.47 C30.72 22.34, 30.32 23.2, 29.86 24 C29.39 24.8, 28.85 25.58, 28.26 26.28 C27.66 26.99, 26.99 27.66, 26.28 28.26 C25.58 28.85, 24.8 29.39, 24 29.86 C23.2 30.32, 22.34 30.72, 21.47 31.04 C20.6 31.35, 19.69 31.6, 18.78 31.76 C17.87 31.92, 16.93 32, 16 32 C15.07 32, 14.13 31.92, 13.22 31.76 C12.31 31.6, 11.4 31.35, 10.53 31.04 C9.66 30.72, 8.8 30.32, 8 29.86 C7.2 29.39, 6.42 28.85, 5.72 28.26 C5.01 27.66, 4.34 26.99, 3.74 26.28 C3.15 25.58, 2.61 24.8, 2.14 24 C1.68 23.2, 1.28 22.34, 0.96 21.47 C0.65 20.6, 0.4 19.69, 0.24 18.78 C0.08 17.87, 0 16.93, 0 16 C0 15.07, 0.08 14.13, 0.24 13.22 C0.4 12.31, 0.65 11.4, 0.96 10.53 C1.28 9.66, 1.68 8.8, 2.14 8 C2.61 7.2, 3.15 6.42, 3.74 5.72 C4.34 5.01, 5.01 4.34, 5.72 3.74 C6.42 3.15, 7.2 2.61, 8 2.14 C8.8 1.68, 9.66 1.28, 10.53 0.96 C11.4 0.65, 12.31 0.4, 13.22 0.24 C14.13 0.08, 15.07 0, 16 0 C16.93 0, 17.87 0.08, 18.78 0.24 C19.69 0.4, 20.6 0.65, 21.47 0.96 C22.34 1.28, 23.2 1.68, 24 2.14 C24.8 2.61, 25.58 3.15, 26.28 3.74 C26.99 4.34, 27.66 5.01, 28.26 5.72 C28.85 6.42, 29.39 7.2, 29.86 8 C30.32 8.8, 30.72 9.66, 31.04 10.53 C31.35 11.4, 31.6 12.31, 31.76 13.22 C31.92 14.13, 31.96 15.54, 32 16 C32.04 16.46, 32.04 15.54, 32 16" stroke="none" stroke-width="0" fill="#009E73"></path><path d="M32 16 C32 16.93, 31.92 17.87, 31.76 18.78 C31.6 19.69, 31.35 20.6, 31.04 21.47 C30.72 22.34, 30.32 23.2, 29.86 24 C29.39 24.8, 28.85 25.58, 28.26 26.28 C27.66 26.99, 26.99 27.66, 26.28 28.26 C25.58 28.85, 24.8 29.39, 24 29.86 C23.2 30.32, 22.34 30.72, 21.47 31.04 C20.6 31.35, 19.69 31.6, 18.78 31.76 C17.87 31.92, 16.93 32, 16 32 C15.07 32, 14.13 31.92, 13.22 31.76 C12.31 31.6, 11.4 31.35, 10.53 31.04 C9.66 30.72, 8.8 30.32, 8 29.86 C7.2 29.39, 6.42 28.85, 5.72 28.26 C5.01 27.66, 4.34 26.99, 3.74 26.28 C3.15 25.58, 2.61 24.8, 2.14 24 C1.68 23.2, 1.28 22.34, 0.96 21.47 C0.65 20.6, 0.4 19.69, 0.24 18.78 C0.08 17.87, 0 16.93, 0 16 C0 15.07, 0.08 14.13, 0.24 13.22 C0.4 12.31, 0.65 11.4, 0.96 10.53 C1.28 9.66, 1.68 8.8, 2.14 8 C2.61 7.2, 3.15 6.42, 3.74 5.72 C4.34 5.01, 5.01 4.34, 5.72 3.74 C6.42 3.15, 7.2 2.61, 8 2.14 C8.8 1.68, 9.66 1.28, 10.53 0.96 C11.4 0.65, 12.31 0.4, 13.22 0.24 C14.13 0.08, 15.07 0, 16 0 C16.93 0, 17.87 0.08, 18.78 0.24 C19.69 0.4, 20.6 0.65, 21.47 0.96 C22.34 1.28, 23.2 1.68, 24 2.14 C24.8 2.61, 25.58 3.15, 26.28 3.74 C26.99 4.34, 27.66 5.01, 28.26 5.72 C28.85 6.42, 29.39 7.2, 29.86 8 C30.32 8.8, 30.72 9.66, 31.04 10.53 C31.35 11.4, 31.6 12.31, 31.76 13.22 C31.92 14.13, 31.96 15.54, 32 16 C32.04 16.46, 32.04 15.54, 32 16" stroke="#009E73" stroke-width="2" fill="none"></path></g></svg>